<svg width="163" height="66" viewBox="0 0 163 66" fill="none" xmlns="http://www.w3.org/2000/svg">
<path d="M13.2667 64.1867C12.1947 64.7548 11.0521 65.0433 9.83879 65.0523C8.34505 64.8768 6.89751 64.5143 5.49619 63.9647C4.14153 63.4148 3.13657 62.7456 2.48133 61.9572C2.10243 59.6733 1.79399 57.5756 1.55601 55.664C1.31802 53.7524 1.12698 51.9571 0.982895 50.2782C0.838693 48.5526 0.741384 46.9199 0.690967 45.3803C0.640437 43.794 0.61324 42.2075 0.609376 40.6208C0.604261 38.5208 0.622194 36.304 0.663177 33.9703C0.704159 31.6366 0.7448 29.163 0.7851 26.5493C0.871952 23.8886 0.935074 21.0648 0.974464 18.0778C1.01374 15.0441 1.02906 11.7539 1.02042 8.20726C1.62707 8.20273 2.5375 8.38261 3.75171 8.74689C4.96581 9.0645 6.15674 9.45229 7.32451 9.91025C8.53895 10.3679 9.61344 10.8499 10.548 11.3562C11.4824 11.8159 11.9967 12.2088 12.0909 12.5347C11.6274 13.8449 11.2115 15.5513 10.8433 17.6541C10.5218 19.7565 10.2475 22.092 10.0204 24.6604C9.84 27.2284 9.7066 29.9361 9.6202 32.7835C9.5338 35.6308 9.49401 38.4545 9.50083 41.2545C9.50595 43.3545 9.53389 45.2443 9.58464 46.924C9.63529 48.5569 9.68559 50.0499 9.73555 51.4029C9.83206 52.7089 9.95174 53.9447 10.0946 55.1103C10.2373 56.2292 10.4034 57.348 10.5927 58.4666C11.8897 54.4902 13.3033 50.5129 14.8336 46.5348C16.4106 42.5563 18.0113 38.741 19.6357 35.0888C21.3067 31.3896 22.955 27.9472 24.5805 24.7617C26.2061 21.5762 27.7393 18.8114 29.1803 16.4673C30.6678 14.0761 31.9932 12.1996 33.1565 10.8375C34.3197 9.42883 35.2746 8.67503 36.021 8.57613C36.5345 8.66563 37.0717 8.87163 37.6325 9.19411C38.2398 9.46958 38.8006 9.8154 39.315 10.2316C39.8293 10.6477 40.2971 11.1109 40.7184 11.6211C41.1396 12.1313 41.4675 12.6422 41.7021 13.1538C39.9769 13.7734 38.1138 15.2106 36.1126 17.4656C34.1581 19.7202 32.1815 22.4417 30.1826 25.6299C28.1836 28.7716 26.232 32.2162 24.3278 35.9638C22.4702 39.6644 20.7757 43.2937 19.2444 46.8519C17.7597 50.4097 16.4845 53.7326 15.4187 56.8206C14.3529 59.9086 13.6355 62.364 13.2667 64.1867ZM50.4538 37.2389C53.3366 32.924 56.1736 28.9594 58.9647 25.3452C61.8025 21.684 64.5014 18.5371 67.0617 15.9046C69.6219 13.2722 71.9735 11.2246 74.1166 9.76191C76.2597 8.29924 78.1246 7.56198 79.7112 7.55014C80.3178 7.54561 80.9717 7.77407 81.6728 8.23551C82.4206 8.69661 83.0987 9.29822 83.7072 10.0404C84.3624 10.7822 84.901 11.5948 85.3231 12.4783C85.7452 13.3152 85.9572 14.1303 85.9591 14.9236C83.0681 15.8786 80.2245 17.1365 77.4284 18.6973C74.6787 20.2112 72.0231 21.9811 69.4614 24.0069C66.9462 25.9857 64.525 28.1971 62.1976 30.6412C59.9169 33.0849 57.8466 35.6904 55.9867 38.4576C56.738 40.3654 57.653 42.4119 58.7316 44.5972C59.8568 46.7355 61.0752 48.8265 62.3869 50.8701C63.6984 52.867 65.1029 54.7232 66.6004 56.4387C68.0979 58.1542 69.6179 59.5196 71.1603 60.5347C70.9282 61.0498 70.5328 61.5428 69.9739 62.0136C69.4151 62.4845 68.8095 62.909 68.1571 63.2872C67.5048 63.7121 66.8056 64.044 66.0595 64.2829C65.3601 64.5214 64.7071 64.643 64.1004 64.6475C62.8871 64.6565 61.7657 64.0816 60.7362 62.9226C59.7069 61.8102 58.6528 60.1147 57.5739 57.8361C56.5416 55.5104 55.4379 52.6486 54.263 49.2506C53.1346 45.8057 51.8649 41.8018 50.4538 37.2389ZM39.9519 65.1777C38.1776 64.7709 36.7058 64.0352 35.5366 62.9706C34.3675 61.9526 33.291 60.654 32.3071 59.0746C32.725 58.1848 33.2121 57.0145 33.7686 55.5636C34.3717 54.1125 35.0907 52.3337 35.9256 50.2275C36.7603 48.0745 37.7574 45.5237 38.9169 42.575C40.0762 39.5797 41.4211 36.0929 42.9514 32.1148C43.9252 29.5875 44.7133 27.4582 45.3158 25.727C45.9649 23.9955 46.4975 22.3115 46.9135 20.675C47.376 18.9916 47.8149 17.1449 48.23 15.1351C48.6451 13.1253 49.1289 10.5784 49.6813 7.49419C51.6422 7.8529 53.4176 8.703 55.0075 10.0445C56.6441 11.3856 58.048 13.0085 59.2193 14.9131C58.7076 15.5703 58.1034 16.5782 57.4067 17.9367C56.7566 19.2482 56.0138 20.8405 55.1784 22.7134C54.3429 24.5863 53.4147 26.67 52.3936 28.9643C51.3725 31.2586 50.3051 33.6933 49.1914 36.2683C46.6851 41.8871 44.7144 47.0352 43.2791 51.7126C41.8437 56.3434 40.7347 60.8318 39.9519 65.1777ZM74.4341 46.9301C74.4276 44.2701 74.958 41.6995 76.0253 39.2181C77.1391 36.6898 78.5804 34.4623 80.349 32.5358C82.1642 30.5622 84.2136 28.9835 86.4974 27.7998C88.8277 26.5691 91.2295 25.9445 93.7028 25.926C96.1294 25.9079 97.9975 26.5007 99.307 27.7042C100.617 28.9078 101.274 30.6296 101.28 32.8696C101.282 33.9429 101.121 34.9941 100.797 36.0232C100.52 37.0053 100.125 37.895 99.6138 38.6921C99.1491 39.4889 98.5907 40.1464 97.9386 40.6646C97.2864 41.1362 96.6337 41.3744 95.9804 41.3793C95.4204 41.3834 94.8367 41.2245 94.2292 40.9023C93.6683 40.5332 93.2006 40.07 92.8259 39.5128C95.9455 36.6428 97.5025 34.0411 97.4968 31.7078C97.4935 30.3545 96.9552 29.6818 95.8819 29.6898C94.9486 29.6968 93.783 30.1488 92.3852 31.0459C90.9874 31.943 89.637 33.1198 88.3339 34.5762C86.3327 36.8312 84.7989 39.3393 83.7323 42.1007C82.7122 44.815 82.2058 47.6655 82.2131 50.6521C82.2223 54.4321 83.0678 56.6892 84.7496 57.4233C85.4493 57.3248 86.2655 57.1087 87.198 56.775C88.1305 56.4414 89.1328 56.0139 90.2048 55.4926C91.2768 54.9246 92.3719 54.2864 93.4901 53.578C94.655 52.8693 95.7732 52.1143 96.8446 51.313C97.0316 51.4516 97.1954 51.6604 97.3361 51.9393C97.4768 52.2183 97.5474 52.4744 97.548 52.7077C96.757 53.6937 95.8494 54.6571 94.825 55.5981C93.8007 56.5391 92.7295 57.4104 91.6114 58.2121C90.4933 58.9671 89.3982 59.6053 88.3261 60.1267C87.3008 60.6943 86.3917 61.0511 85.5988 61.197C84.0585 61.0685 82.6106 60.5893 81.2553 59.7594C79.9001 58.9762 78.7075 57.9351 77.6777 56.6361C76.6946 55.3367 75.8976 53.8493 75.2869 52.1738C74.7228 50.498 74.4385 48.7501 74.4341 46.9301ZM101.754 57.6464C101.985 56.2914 102.377 54.5151 102.931 52.3176C103.533 50.0731 104.227 47.7112 105.014 45.2319C105.801 42.706 106.635 40.1798 107.516 37.6531C108.396 35.1265 109.254 32.8568 110.089 30.8438C110.692 29.3927 111.226 28.2687 111.691 27.4718C112.155 26.6284 112.667 25.9245 113.226 25.3604C113.879 25.4488 114.556 25.6071 115.257 25.8352C115.957 26.0633 116.635 26.3383 117.289 26.6601C117.943 26.9819 118.527 27.3275 119.041 27.697C119.555 28.0198 119.953 28.3435 120.234 28.6681C118.977 30.1709 117.862 31.8825 116.886 33.8032C115.958 35.7235 115.007 38.1806 114.034 41.1746C116.549 38.9158 118.76 36.7526 120.668 34.685C122.623 32.617 124.438 30.3168 126.112 27.7843C126.391 27.5488 126.881 27.4285 127.581 27.4233C128.234 27.4184 128.864 27.5304 129.471 27.7592C130.079 27.9413 130.499 28.2182 130.733 28.5898C129.899 30.836 129.484 33.0558 129.49 35.2492C129.495 37.3025 129.802 38.8402 130.411 39.8624C130.365 40.1427 130.04 40.6818 129.435 41.4797C128.877 42.2772 128.249 43.0285 127.55 43.7338C126.289 43.0898 125.167 42.2115 124.184 41.0988C123.201 39.9395 122.475 38.6849 122.005 37.335C119.815 38.8914 117.952 40.422 116.416 41.9268C114.88 43.385 113.554 45.0282 112.438 46.8566C111.369 48.6379 110.441 50.6982 109.653 53.0374C108.912 55.3763 108.196 58.1584 107.504 61.3836C107.083 61.3401 106.57 61.1806 105.962 60.9051C105.402 60.6759 104.818 60.377 104.21 60.0082C103.649 59.639 103.135 59.2462 102.667 58.8296C102.2 58.4131 101.895 58.0187 101.754 57.6464ZM138.11 59.2652C140.254 57.8025 142.349 55.9435 144.397 53.6882C146.445 51.3862 148.305 48.9223 149.979 46.2965C151.652 43.6239 153.069 40.86 154.229 38.0046C155.388 35.1493 156.175 32.4134 156.589 29.7969C156.587 29.2369 156.283 28.8658 155.676 28.6837C155.023 28.6886 154.114 29.2787 152.95 30.4541C151.833 31.5824 150.576 33.0385 149.181 34.8222C147.832 36.6057 146.437 38.5994 144.995 40.8036C143.601 43.0073 142.323 45.2102 141.162 47.4123C140 49.5676 139.002 51.6051 138.167 53.5247C137.378 55.3973 136.938 56.9173 136.848 58.0846C136.381 58.0881 135.983 57.6244 135.654 56.6935C135.56 56.4609 135.396 56.2287 135.163 55.9972C134.929 55.7189 134.554 55.395 134.04 55.0255C133.806 54.8406 133.573 54.6323 133.339 54.4007C133.105 54.1225 132.941 53.8904 132.847 53.7044C132.659 53.3325 132.565 52.7265 132.563 51.8865C132.556 49.1332 132.898 46.0272 133.59 42.5687C134.281 39.1101 135.183 35.58 136.294 31.9783C137.452 28.3763 138.797 24.8429 140.328 21.3781C141.86 17.8666 143.438 14.6581 145.065 11.7526C146.738 8.84674 148.412 6.38421 150.087 4.36502C151.762 2.34582 153.345 1.00399 154.837 0.339516C155.304 0.476034 155.864 0.70519 156.518 1.02698C157.173 1.34877 157.827 1.71723 158.481 2.13235C159.135 2.54748 159.743 2.96295 160.304 3.37877C160.912 3.79424 161.356 4.16427 161.637 4.48884C156.514 8.68047 152.07 14.057 148.306 20.6186C144.589 27.1331 141.551 34.8325 139.193 43.7169C140.493 41.2805 141.958 38.9362 143.585 36.684C145.213 34.3852 146.818 32.3665 148.401 30.628C150.03 28.8892 151.566 27.501 153.01 26.4635C154.501 25.4257 155.737 24.9032 156.717 24.8959C157.464 25.077 158.188 25.3982 158.889 25.8597C159.59 26.3211 160.221 26.8997 160.783 27.5956C161.345 28.2447 161.813 28.9646 162.188 29.7551C162.564 30.499 162.799 31.2906 162.894 32.1299C162.852 34.0902 162.507 36.1928 161.86 38.4377C161.258 40.6356 160.424 42.8118 159.355 44.9665C158.334 47.1208 157.149 49.183 155.801 51.1531C154.499 53.1228 153.103 54.86 151.613 56.3644C150.17 57.8219 148.703 58.9995 147.212 59.8973C145.767 60.7948 144.392 61.2484 143.085 61.2581C142.525 61.2623 141.942 61.1967 141.335 61.0612C140.775 60.972 140.238 60.8127 139.724 60.5832C139.257 60.4 138.859 60.193 138.532 59.9621C138.252 59.7308 138.111 59.4985 138.11 59.2652Z" fill="white"/>
</svg>
