<svg width="16" height="16" viewBox="0 0 16 16" fill="none" xmlns="http://www.w3.org/2000/svg">
<path d="M15.3024 6.13413C15.2998 6.10626 15.293 6.07936 15.2815 6.05246C15.2764 6.04166 15.2726 6.03081 15.2662 6.01965C15.2459 5.98539 15.2201 5.95274 15.1843 5.92497C15.184 5.92469 15.1837 5.92418 15.1834 5.92387C15.1834 5.92384 15.1834 5.92385 15.1833 5.92382L7.92877 0.324556C7.8922 0.296327 7.84883 0.276302 7.80381 0.260257C7.79147 0.255974 7.7792 0.253381 7.76638 0.250063C7.73028 0.240231 7.69324 0.23432 7.65502 0.232691C7.64612 0.232028 7.6376 0.228409 7.62869 0.228409H2.83467C1.27136 0.228409 0 1.21003 0 2.4167V13.5765C0 14.7832 1.27175 15.7645 2.83459 15.7645H12.4733C14.0361 15.7645 15.3079 14.7832 15.3079 13.5765V6.15609C15.3079 6.14855 15.3028 6.14167 15.3024 6.13413ZM8.05287 4.29623C8.05287 3.09335 9.43417 2.41458 10.3864 3.14954L10.8332 3.49439C11.8169 4.25363 11.28 5.82801 10.0374 5.82801C8.94287 5.82801 8.05287 5.14105 8.05287 4.29623ZM12.4733 15.108H2.83467C1.74015 15.108 0.85015 14.4206 0.85015 13.5762V2.4167C0.85015 1.57188 1.74062 0.884614 2.83467 0.884614H3.79112C5.67534 0.884614 7.20279 2.41207 7.20279 4.29629C7.20279 5.50296 8.47454 6.48422 10.0374 6.48422C12.4787 6.48422 14.4578 8.4633 14.4578 10.9046V13.5762C14.4578 14.421 13.5678 15.108 12.4733 15.108Z" fill="white"/>
</svg>
