<svg width="94" height="38" viewBox="0 0 94 38" fill="none" xmlns="http://www.w3.org/2000/svg">
<path d="M7.87307 36.9146C7.26111 37.2372 6.60846 37.4 5.91513 37.403C5.06135 37.2999 4.23379 37.0901 3.43243 36.7735C2.65774 36.4568 2.08276 36.0726 1.7075 35.6209C1.4886 34.3151 1.31015 33.1159 1.17216 32.0231C1.03416 30.9304 0.923123 29.9042 0.839031 28.9445C0.754826 27.9582 0.697514 27.0251 0.667096 26.1452C0.636565 25.2387 0.619367 24.3321 0.615501 23.4254C0.610386 22.2254 0.61832 20.9587 0.639302 19.6253C0.660285 18.2919 0.680926 16.8784 0.701227 15.385C0.74808 13.8648 0.781202 12.2513 0.800593 10.5445C0.81987 8.81109 0.825189 6.93105 0.81655 4.9044C1.16321 4.90292 1.68366 5.00737 2.3779 5.21775C3.07202 5.40146 3.75298 5.62522 4.42078 5.88905C5.11524 6.15276 5.72977 6.43014 6.26434 6.72119C6.79881 6.98558 7.09311 7.211 7.14723 7.39744C6.88375 8.14523 6.64791 9.11958 6.43969 10.3205C6.25814 11.5213 6.10382 12.8553 5.97675 14.3225C5.87633 15.7896 5.80293 17.3366 5.75653 18.9635C5.71013 20.5904 5.69034 22.2038 5.69716 23.8038C5.70228 25.0038 5.72021 26.0837 5.75097 27.0436C5.78162 27.9768 5.81192 28.83 5.84188 29.6032C5.8984 30.3496 5.96808 31.056 6.05092 31.7223C6.13365 32.362 6.22971 33.0016 6.3391 33.6411C7.0761 31.3713 7.87976 29.1012 8.75009 26.8308C9.64709 24.5603 10.5578 22.383 11.4823 20.2991C12.4333 18.1883 13.3716 16.2243 14.2972 14.407C15.2228 12.5897 16.0961 11.0127 16.917 9.67581C17.7646 8.31218 18.52 7.24229 19.1834 6.46612C19.8466 5.66329 20.3915 5.23429 20.8179 5.17914C21.1115 5.23122 21.4186 5.34991 21.7394 5.53521C22.0868 5.69373 22.4076 5.89237 22.702 6.13112C22.9963 6.36986 23.2641 6.63539 23.5054 6.9277C23.7466 7.22001 23.9345 7.51254 24.0691 7.8053C23.0839 8.15617 22.0208 8.97405 20.8796 10.2589C19.765 11.5437 18.6383 13.0952 17.4994 14.9134C16.3603 16.7049 15.2487 18.6697 14.1645 20.8076C13.1068 22.9188 12.1423 24.9896 11.2709 27.02C10.4262 29.0503 9.70098 30.9468 9.09516 32.7094C8.48933 34.472 8.08197 35.8737 7.87307 36.9146ZM29.0954 21.584C30.7383 19.1236 32.3553 16.8634 33.9465 14.8033C35.5643 12.7163 37.1034 10.9231 38.5637 9.42353C40.0239 7.92396 41.3657 6.75823 42.5888 5.92634C43.8119 5.09445 44.8768 4.67657 45.7835 4.67271C46.1301 4.67123 46.504 4.80297 46.9052 5.06793C47.333 5.33278 47.7211 5.67779 48.0696 6.10298C48.4447 6.52805 48.7534 6.9934 48.9955 7.49904C49.2376 7.97801 49.3596 8.44417 49.3615 8.8975C47.7105 9.43787 46.0868 10.1515 44.4906 11.0383C42.9209 11.8983 41.4052 12.9048 39.9434 14.0577C38.5082 15.1838 37.1269 16.4431 35.7995 17.8354C34.4987 19.2276 33.3184 20.7127 32.2585 22.2905C32.6898 23.382 33.2148 24.5531 33.8334 25.8038C34.4787 27.0278 35.1771 28.2248 35.9288 29.3949C36.6803 30.5384 37.4849 31.6017 38.3424 32.5847C39.1999 33.5677 40.0699 34.3507 40.9524 34.9336C40.8203 35.2275 40.5949 35.5084 40.276 35.7765C39.9572 36.0445 39.6115 36.286 39.2391 36.5009C38.8668 36.7425 38.4676 36.9309 38.0415 37.066C37.6421 37.201 37.269 37.2693 36.9224 37.2708C36.229 37.2737 35.5876 36.9431 34.9981 36.279C34.4087 35.6415 33.8046 34.6707 33.1857 33.3667C32.5933 32.0359 31.9597 30.3985 31.2847 28.4547C30.6363 26.4841 29.9065 24.1939 29.0954 21.584ZM23.1233 37.5296C22.109 37.2939 21.2672 36.8708 20.5979 36.2604C19.9287 35.6765 19.3122 34.9325 18.7484 34.0282C18.9862 33.5205 19.2634 32.8527 19.5798 32.0247C19.923 31.1965 20.332 30.1814 20.8069 28.9794C21.2816 27.7507 21.8488 26.2949 22.5083 24.6121C23.1676 22.9026 23.9325 20.9127 24.8028 18.6423C25.3567 17.1999 25.8048 15.9846 26.1473 14.9965C26.5164 14.0083 26.819 13.047 27.055 12.1126C27.3176 11.1515 27.5664 10.0971 27.8015 8.9494C28.0366 7.80172 28.3104 6.34721 28.6229 4.58586C29.7438 4.79442 30.7593 5.28343 31.6692 6.05289C32.6058 6.82224 33.4098 7.75215 34.0811 8.84263C33.7894 9.21721 33.4452 9.79202 33.0485 10.5671C32.6783 11.3153 32.2555 12.2238 31.7801 13.2925C31.3046 14.3612 30.7764 15.5501 30.1953 16.8593C29.6142 18.1684 29.0068 19.5577 28.373 21.0271C26.9467 24.2332 25.8259 27.1713 25.0106 29.8415C24.1952 32.485 23.5661 35.0477 23.1233 37.5296ZM42.809 27.1656C42.8025 25.6456 43.1029 24.1776 43.7102 22.7617C44.3441 21.319 45.1654 20.0488 46.174 18.9512C47.2092 17.8268 48.3788 16.9284 49.6826 16.2562C51.0129 15.5572 52.3848 15.2047 53.7981 15.1986C55.1848 15.1927 56.2529 15.5348 57.0025 16.225C57.7521 16.9151 58.1297 17.9002 58.1351 19.1802C58.1377 19.7935 58.047 20.3939 57.8628 20.9814C57.7052 21.542 57.4807 22.0497 57.1893 22.5042C56.9245 22.9587 56.6061 23.3334 56.2341 23.6283C55.8619 23.8966 55.4891 24.0315 55.1158 24.0331C54.7958 24.0345 54.462 23.9426 54.1146 23.7574C53.7937 23.5454 53.5259 23.2799 53.3112 22.9608C55.0909 21.3265 55.9779 19.8427 55.9722 18.5094C55.9689 17.7361 55.6606 17.3507 55.0473 17.3533C54.514 17.3556 53.8484 17.6118 53.0506 18.1219C52.2527 18.6319 51.4822 19.3019 50.7391 20.1317C49.5979 21.4166 48.724 22.847 48.1174 24.4229C47.5373 25.9721 47.2509 27.6 47.2582 29.3066C47.2674 31.4666 47.7529 32.7579 48.7147 33.1805C49.1145 33.1254 49.5806 33.0034 50.1132 32.8145C50.6457 32.6256 51.218 32.3831 51.8301 32.0872C52.442 31.7646 53.0672 31.4019 53.7055 30.9992C54.3704 30.5963 55.0086 30.1669 55.62 29.711C55.727 29.7905 55.8208 29.9102 55.9015 30.0698C55.9822 30.2295 56.0228 30.376 56.0234 30.5093C55.5724 31.0712 55.0548 31.6201 54.4704 32.1559C53.886 32.6918 53.2748 33.1877 52.6367 33.6438C51.9985 34.0731 51.3734 34.4358 50.7613 34.7318C50.176 35.0543 49.6569 35.2565 49.2039 35.3384C48.3236 35.2622 47.4957 34.9857 46.7204 34.509C45.9451 34.059 45.2625 33.4619 44.6727 32.7177C44.1095 31.9734 43.6526 31.122 43.3018 30.1635C42.9777 29.2049 42.8134 28.2056 42.809 27.1656ZM58.4323 33.339C58.5624 32.5652 58.7847 31.5509 59.0994 30.2962C59.4406 29.0147 59.8348 27.6664 60.2821 26.2511C60.7293 24.8092 61.2032 23.3671 61.7037 21.925C62.2042 20.4829 62.6921 19.1874 63.1672 18.0387C63.5103 17.2106 63.8142 16.5693 64.079 16.1148C64.3436 15.6337 64.6352 15.2324 64.9539 14.9111C65.3274 14.9628 65.7145 15.0545 66.115 15.1861C66.5156 15.3178 66.9029 15.4761 67.2771 15.6612C67.6512 15.8463 67.9854 16.0448 68.2796 16.2569C68.5737 16.4423 68.8012 16.628 68.962 16.814C68.2456 17.6704 67.6098 18.6465 67.0545 19.7422C66.5258 20.8378 65.9851 22.2401 65.4324 23.9491C66.8669 22.663 68.1283 21.4309 69.2167 20.253C70.3316 19.0749 71.3661 17.7638 72.3199 16.3197C72.4794 16.1857 72.7591 16.1178 73.1591 16.1161C73.5324 16.1145 73.8927 16.1797 74.2399 16.3115C74.587 16.4167 74.8277 16.5757 74.9619 16.7884C74.4874 18.0705 74.2528 19.3381 74.2582 20.5915C74.2632 21.7648 74.4402 22.644 74.7894 23.2292C74.7634 23.3893 74.5781 23.6968 74.2333 24.1516C73.9153 24.6063 73.5571 25.0345 73.1588 25.4362C72.4372 25.0659 71.7951 24.562 71.2323 23.9244C70.6695 23.2601 70.2531 22.5419 69.9831 21.7697C68.7336 22.655 67.6706 23.5262 66.7942 24.3833C65.9178 25.2137 65.1618 26.1503 64.5262 27.193C63.9172 28.209 63.3889 29.3846 62.9412 30.7198C62.5202 32.0549 62.1137 33.6434 61.7215 35.485C61.4814 35.4594 61.1877 35.3673 60.8403 35.2088C60.5198 35.0768 60.1857 34.9049 59.8381 34.6931C59.5172 34.4811 59.2229 34.2557 58.9552 34.0168C58.6876 33.778 58.5133 33.552 58.4323 33.339ZM79.2096 34.3305C80.4327 33.4986 81.6282 32.4402 82.7961 31.1552C83.9638 29.8435 85.0245 28.439 85.9781 26.9416C86.9317 25.4175 87.7383 23.8407 88.398 22.2112C89.0577 20.5817 89.5044 19.0198 89.738 17.5255C89.7367 17.2055 89.5624 16.9929 89.2153 16.8877C88.842 16.8893 88.3234 17.2248 87.6596 17.8943C87.0223 18.537 86.3059 19.3668 85.5102 20.3835C84.7412 21.4001 83.946 22.5369 83.1247 23.7937C82.33 25.0504 81.6021 26.3069 80.9407 27.563C80.2793 28.7925 79.7109 29.955 79.2356 31.0503C78.7868 32.1189 78.5372 32.9867 78.4867 33.6536C78.22 33.6547 77.9922 33.389 77.8033 32.8565C77.7494 32.7234 77.6555 32.5904 77.5216 32.4577C77.3876 32.2982 77.1734 32.1125 76.8792 31.9004C76.7454 31.7943 76.6116 31.6749 76.4777 31.5421C76.3436 31.3827 76.2497 31.2497 76.196 31.1433C76.0884 30.9304 76.0336 30.584 76.0315 30.104C76.0248 28.5307 76.2173 26.7565 76.6088 24.7815C77.0004 22.8065 77.5118 20.7909 78.1431 18.7349C78.801 16.6787 79.5657 14.6621 80.4373 12.6851C81.3088 10.6813 82.2077 8.85081 83.1339 7.19351C84.0869 5.5361 85.0409 4.13202 85.996 2.98127C86.9511 1.83052 87.8545 1.06666 88.7063 0.689696C88.9733 0.768559 89.2938 0.900528 89.668 1.0856C90.0421 1.27067 90.4163 1.48241 90.7907 1.72082C91.165 1.95923 91.5127 2.19775 91.8337 2.43638C92.1814 2.6749 92.4357 2.88715 92.5964 3.07313C89.6733 5.45895 87.1396 8.52311 84.9956 12.2656C82.8781 15.9813 81.1501 20.3754 79.8117 25.4478C80.5525 24.058 81.3868 22.7211 82.3146 21.4371C83.2424 20.1265 84.1575 18.9759 85.06 17.9854C85.9891 16.9948 86.8657 16.2044 87.6899 15.6142C88.5407 15.0239 89.2461 14.7275 89.8061 14.7251C90.2332 14.83 90.6473 15.0149 91.0485 15.2798C91.4496 15.5448 91.811 15.8766 92.1327 16.2752C92.4543 16.6472 92.7227 17.0594 92.938 17.5118C93.1532 17.9376 93.2884 18.3903 93.3438 18.8701C93.3219 19.9902 93.127 21.191 92.7592 22.4726C92.4178 23.7274 91.9431 24.9695 91.335 26.1987C90.7536 27.4279 90.0786 28.6041 89.31 29.7274C88.5682 30.8506 87.7724 31.8406 86.9227 32.6976C86.0995 33.5278 85.2624 34.198 84.4112 34.7083C83.5867 35.2185 82.8012 35.4752 82.0545 35.4784C81.7345 35.4797 81.401 35.4412 81.054 35.3626C80.7338 35.3107 80.4267 35.2186 80.1328 35.0866C79.8657 34.981 79.6385 34.862 79.4513 34.7295C79.2907 34.5968 79.2101 34.4638 79.2096 34.3305Z" fill="#516395"/>
</svg>
